<?xml version="1.0" standalone="no"?>
<!DOCTYPE svg PUBLIC "-//W3C//DTD SVG 20010904//EN"
 "http://www.w3.org/TR/2001/REC-SVG-20010904/DTD/svg10.dtd">
<svg version="1.0" xmlns="http://www.w3.org/2000/svg"
 width="712.000000pt" height="712.000000pt" viewBox="0 0 712.000000 712.000000"
 preserveAspectRatio="xMidYMid meet">
<metadata>
Created by potrace 1.14, written by Peter Selinger 2001-2017
</metadata>
<g transform="translate(0.000000,712.000000) scale(0.100000,-0.100000)"
fill="#000000" stroke="none">
<path d="M5250 6906 c-19 -7 -38 -13 -42 -14 -5 -1 -9 -2 -10 -3 -2 0 -11 -2
-20 -4 -31 -6 -172 -79 -237 -122 -35 -24 -65 -43 -68 -43 -2 0 -9 -5 -16 -10
-19 -16 -83 -64 -107 -80 -12 -8 -28 -20 -34 -25 -6 -6 -33 -28 -61 -50 -27
-22 -51 -43 -53 -47 -2 -5 -8 -8 -13 -8 -5 0 -17 -8 -27 -17 -10 -10 -50 -45
-88 -78 -108 -94 -259 -250 -296 -307 -45 -68 -58 -107 -52 -157 l5 -41 -68 5
c-37 3 -81 9 -98 15 -16 5 -43 11 -60 14 -16 2 -32 5 -35 6 -3 1 -8 2 -13 1
-4 -1 -38 5 -75 13 -64 14 -102 20 -203 31 -69 8 -85 12 -146 35 -80 30 -119
30 -193 3 -36 -14 -78 -29 -95 -35 -16 -6 -36 -15 -42 -21 -17 -13 -137 -22
-160 -12 -10 4 -26 10 -35 11 -9 2 -54 22 -100 45 -79 39 -147 65 -195 74 -13
3 -35 8 -50 11 -35 7 -160 6 -193 -1 -14 -4 -38 -9 -53 -11 -39 -7 -106 -37
-157 -69 -37 -23 -83 -36 -132 -36 -10 0 -20 -4 -23 -10 -4 -5 -17 -9 -29 -9
-13 0 -29 -7 -36 -15 -7 -8 -18 -15 -24 -15 -6 -1 -40 -19 -76 -40 l-65 -40
-7 33 c-4 17 -10 45 -13 61 -5 27 -53 135 -65 146 -3 3 -20 28 -39 55 -82 119
-154 219 -167 232 -8 8 -14 18 -14 23 0 5 -6 15 -13 22 -7 7 -34 41 -60 75
-51 67 -164 183 -177 183 -5 0 -15 6 -22 14 -25 24 -114 65 -187 85 -39 11
-71 18 -71 15 0 -3 -9 0 -20 6 -11 6 -20 7 -20 3 0 -4 -25 -9 -55 -9 -113 -3
-244 -102 -305 -229 -8 -16 -23 -42 -33 -57 -10 -16 -15 -28 -11 -28 3 0 2 -6
-3 -12 -11 -14 -81 -220 -86 -253 -1 -11 -6 -26 -10 -32 -5 -7 -6 -13 -4 -13
3 0 1 -17 -4 -37 -5 -21 -12 -60 -15 -88 -7 -53 -12 -80 -14 -80 -1 0 -3 -18
-5 -40 -2 -22 -6 -65 -9 -95 -12 -111 -27 -321 -26 -355 1 -11 1 -27 0 -35 -4
-53 -1 -352 4 -385 3 -22 8 -55 11 -73 18 -118 73 -330 99 -380 8 -15 24 -37
35 -49 l21 -22 -37 -20 c-53 -27 -122 -97 -179 -183 -27 -40 -51 -75 -54 -78
-9 -9 -40 -64 -62 -110 -12 -25 -26 -46 -30 -48 -4 -2 -8 -12 -8 -22 0 -10 -4
-22 -10 -25 -5 -3 -10 -12 -10 -20 0 -8 -5 -26 -12 -42 -17 -42 -19 -52 -23
-123 -4 -65 21 -190 37 -190 4 0 8 -5 8 -11 0 -11 64 -97 82 -109 14 -11 28
-62 23 -89 -6 -34 -26 -93 -53 -152 -78 -174 -96 -228 -94 -290 2 -53 26 -98
77 -149 25 -25 45 -48 45 -52 0 -5 7 -8 16 -8 8 0 12 -4 9 -10 -3 -6 -2 -10 3
-10 5 0 15 -21 22 -46 17 -58 15 -153 -4 -246 -13 -61 -26 -145 -31 -198 -2
-14 -4 -25 -5 -25 -1 0 -4 -40 -15 -180 -3 -38 -8 -106 -12 -150 -13 -156 -7
-343 12 -400 21 -60 47 -105 79 -133 l35 -30 -45 -45 c-24 -24 -44 -49 -44
-56 0 -6 -3 -11 -8 -11 -4 0 -15 -17 -24 -38 -63 -147 -68 -310 -15 -527 4
-16 28 -76 48 -122 11 -24 19 -47 19 -53 0 -5 5 -10 10 -10 6 0 10 -5 10 -11
0 -13 96 -160 129 -198 24 -28 25 -30 10 -68 -6 -15 -13 -37 -15 -48 -2 -11
-12 -50 -23 -87 -11 -38 -17 -68 -14 -68 3 0 0 -6 -6 -13 -6 -8 -8 -17 -4 -20
3 -4 1533 -7 3400 -7 l3393 0 0 179 c0 107 -4 191 -11 208 -6 15 -28 75 -48
133 -21 58 -46 122 -55 142 l-17 36 65 66 66 66 0 405 0 405 -33 34 c-44 45
-159 131 -209 157 -80 41 -160 60 -255 62 -80 1 -93 4 -93 19 0 9 6 23 13 30
19 20 56 137 61 193 3 28 8 86 13 130 9 97 9 305 -1 360 -4 22 -9 49 -11 60
-7 45 -20 84 -55 170 -37 90 -37 90 -33 215 2 69 5 157 6 195 1 39 -2 88 -6
110 -5 22 -11 51 -13 65 -7 38 -47 120 -90 186 -55 85 -94 169 -98 212 -2 23
4 52 17 77 21 41 67 116 78 125 10 8 70 138 75 163 13 61 16 76 18 127 6 115
-48 245 -157 379 -34 42 -64 78 -67 81 -21 20 -77 101 -95 138 -20 41 -21 50
-10 96 7 28 11 59 9 69 -3 23 17 22 23 -2 6 -23 46 -46 67 -38 45 18 80 147
72 267 -2 36 -5 65 -6 65 -1 0 -3 16 -5 35 -9 85 -44 243 -80 365 -40 137
-157 423 -205 505 -5 8 -21 37 -36 65 -15 27 -44 78 -65 113 -22 35 -39 68
-39 72 0 5 -4 10 -8 12 -5 2 -23 26 -41 53 -81 121 -255 256 -381 294 -59 18
-187 22 -230 7z m-4605 -655 c-3 -5 -8 -31 -11 -58 -9 -74 -11 -87 -17 -103
-3 -8 -9 -28 -13 -45 -4 -16 -8 -32 -9 -35 0 -3 -5 -27 -10 -55 -5 -27 -9 -53
-11 -57 -1 -5 -2 -24 -3 -43 0 -19 -6 -35 -12 -35 -6 0 -8 14 -4 38 3 20 8 53
11 72 11 84 16 117 25 155 6 22 11 47 12 55 7 43 32 120 39 120 5 0 7 -4 3 -9z
m774 -135 c-3 -3 -11 5 -18 17 -13 21 -12 21 5 5 10 -10 16 -20 13 -22z m-854
-341 c-3 -19 -9 -53 -14 -74 -5 -22 -6 -43 -2 -47 3 -4 1 -4 -5 -1 -8 5 -9 21
-3 52 5 26 8 49 8 53 -4 23 2 52 11 52 5 0 7 -16 5 -35z m5499 -1021 c3 -8 2
-12 -4 -9 -6 3 -10 10 -10 16 0 14 7 11 14 -7z m61 -89 c17 -22 36 -46 43 -53
7 -8 25 -30 40 -50 15 -21 29 -39 32 -42 21 -21 53 -115 58 -170 5 -65 -2 -81
-11 -25 -9 55 -39 147 -60 184 -12 20 -45 59 -73 87 -43 42 -84 106 -84 131 0
7 24 -19 55 -62z m-5775 -610 c-7 -32 -70 -141 -70 -122 0 11 69 157 74 157 2
0 0 -16 -4 -35z m2684 -3025 c3 -14 8 -36 12 -50 l7 -25 -27 26 c-24 22 -26
29 -16 54 12 31 17 30 24 -5z m674 -265 c-10 -10 -49 -14 -43 -4 4 5 16 9 27
9 12 0 19 -2 16 -5z"/>
</g>
</svg>
